PathFileType	4	(X/Y/Z)	C:/Users/beibeiliu/ov580/test_trc/capture2\sequence.12_training_dense_left.trc
DataRate	CameraRate	NumFrames	NumMarkers	Units	OrigDataRate	OrigDataStartFrame	OrigNumFrames
120	120	12	19	mm	120	277	369
Frame#	Time	ThumbCMC			ThumbMCP			ThumbIP			ThumbTip			IndexMCP			IndexPIP			IndexTip			MiddleMCP			MiddlePIP			MiddleTip			RingMCP			RingPIP			RingTip			PinkyMCP			PinkyPIP			PinkyTip			BackHand1			BackHand2			BackHand3	
		X0	Y0	Z0	X1	Y1	Z1	X2	Y2	Z2	X3	Y3	Z3	X4	Y4	Z4	X5	Y5	Z5	X6	Y6	Z6	X7	Y7	Z7	X8	Y8	Z8	X9	Y9	Z9	X10	Y10	Z10	X11	Y11	Z11	X12	Y12	Z12	X13	Y13	Z13	X14	Y14	Z14	X15	Y15	Z15	X16	Y16	Z16	X17	Y17	Z17	X18	Y18	Z18	
276	2.3	-57.4933	29.5739	24.7115	-57.6006	10.8088	-4.85399	-55.8529	7.05498	-30.3101	-58.1188	12.4745	-56.9042	-27.0888	57.4784	-39.9349	-31.5397	46.1535	-64.158	-55.1593	24.4039	-69.4996	-41.9095	80.4827	-45.3473	-37.8693	78.6904	-70.9993	-35.7622	77.9176	-101.227	-67.0832	91.1291	-43.0977	-66.0387	96.2692	-66.1886	-59.9458	100.367	-90.6699	-91.8598	94.7189	-39.9453	-98.0869	98.5665	-54.1219	-100.126	114.151	-71.9211	-73.1513	88.3039	8.10446	-82.3047	83.367	33.8778	-51.4708	68.171	27.1211	
277	2.30833	-57.4615	24.5214	27.334	-59.9151	10.7726	-3.23408	-57.4373	5.44203	-30.3374	-59.6236	9.58307	-54.918	-28.6484	54.113	-39.332	-33.489	38.8501	-64.3238	-57.2015	17.0415	-69.7224	-43.7352	76.8574	-41.9225	-39.9873	76.0122	-67.6264	-37.5866	74.2359	-101.062	-63.1262	87.4526	-42.0229	-66.3122	93.7092	-63.8308	-58.0132	96.3986	-90.8625	-90.9585	91.3194	-36.0031	-92.7943	95.2178	-56.4962	-98.9746	112.83	-69.5133	-75.6714	86.1873	8.91283	-81.8758	79.9825	37.2059	-53.3162	65.6578	24.7017	
278	2.31667	-57.0998	21.6518	28.9399	-58.199	4.51306	-2.77094	-55.4028	1.76209	-30.3865	-58.5309	7.33414	-56.3993	-26.9885	50.827	-37.1771	-34.5123	36.8736	-62.942	-56.651	16.3908	-70.5302	-40.2527	72.4692	-40.7096	-38.5317	73.0679	-68.2925	-38.114	71.3881	-97.3286	-65.169	86.3822	-39.4488	-64.5729	91.712	-64.5006	-59.8674	96.6394	-86.9911	-92.4816	90.612	-32.3138	-91.9528	94.3996	-55.5109	-95.0765	107.739	-68.6732	-75.4153	83.9015	10.4166	-79.8741	78.6114	40.5774	-50.5078	61.6612	26.815	
279	2.325	-55.9929	19.5919	27.6824	-61.5052	7.40919	-1.83297	-55.6824	-0.468995	-31.655	-59.5511	7.2322	-55.121	-28.0317	50.6514	-36.9006	-32.0382	35.7057	-61.3832	-58.3056	15.4661	-69.2988	-41.6475	72.478	-42.2515	-38.6777	71.8308	-68.2185	-37.298	71.0854	-96.4184	-63.6796	85.5569	-39.785	-62.5338	91.204	-64.3921	-57.2374	94.9389	-87.7661	-91.028	88.6249	-32.4941	-94.4853	93.5011	-48.5273	-98.8327	108.675	-65.4827	-69.0795	80.193	10.2767	-80.958	79.4193	39.6151	-51.1349	61.3344	31.9694	
280	2.33333	-56.6312	18.4816	29.6516	-59.6825	4.67493	-2.47283	-57.3136	4.88245	-29.6836	-58.98	6.68472	-52.8035	-28.9862	51.0188	-33.139	-34.5823	40.9448	-61.1528	-54.9512	19.3208	-70.1149	-39.0372	69.7721	-38.9191	-38.4511	71.286	-63.2644	-33.8606	68.604	-94.9308	-63.1112	84.1803	-35.147	-58.7216	89.4661	-63.8893	-57.6986	97.0171	-87.7266	-89.5244	88.5123	-30.9575	-94.2259	94.601	-50.4395	-96.4865	109.046	-65.9879	-70.9222	80.9466	12.7003	-83.4194	77.8128	43.1556	-53.6536	60.8502	32.5691	
281	2.34167	-58.3395	21.2279	27.5524	-58.7158	4.38499	-3.82114	-57.8782	2.49024	-27.7056	-60.6595	12.6436	-51.7	-29.625	51.2513	-32.0717	-32.9472	37.3008	-62.1918	-55.9315	17.2054	-69.2142	-38.3426	71.5834	-39.9083	-37.0182	71.2709	-67.101	-37.5913	71.3512	-93.4886	-59.8871	84.3892	-38.2018	-60.598	91.1576	-60.459	-52.5458	95.1823	-87.0508	-90.9084	88.8859	-28.0932	-90.1623	94.9578	-51.7615	-95.1358	111.769	-67.7555	-70.5084	79.3078	12.2798	-81.7906	76.274	42.1661	-53.1562	59.4697	31.6134	
282	2.35	-55.1298	18.6759	26.141	-61.7338	6.12584	-0.461086	-57.0642	0.821326	-27.3567	-60.4818	12.402	-55.1875	-26.9731	50.8203	-34.198	-31.691	38.5335	-59.3534	-57.4422	17.0239	-68.0933	-41.4973	73.7378	-39.691	-35.2307	71.7252	-64.5697	-36.6815	71.6593	-91.1498	-58.4882	84.6852	-37.1291	-57.266	90.4158	-60.6692	-56.1343	99.777	-87.0309	-86.4426	90.1152	-30.7006	-92.2497	98.5086	-49.9527	-93.1323	112.871	-65.5814	-67.8793	80.969	14.4571	-83.3415	77.0449	41.9885	-48.6311	58.7684	32.9463	
283	2.35833	-57.5562	21.4367	28.2315	-59.8511	8.03573	-4.24613	-57.6761	5.50741	-29.3524	-60.4269	13.9062	-53.5168	-27.8368	51.5837	-30.5758	-31.8768	41.3332	-58.4243	-57.572	19.6978	-68.1225	-39.352	72.7907	-38.4394	-38.587	74.0403	-63.1549	-37.4905	73.7324	-91.4047	-62.394	87.1854	-35.1638	-60.6235	93.5062	-60.1815	-56.4672	99.3741	-84.7993	-88.5205	91.1985	-29.6061	-94.1734	98.4382	-46.4526	-92.6508	114.481	-60.4933	-72.2406	83.5707	16.263	-78.5977	74.1292	43.8448	-48.1802	59.2036	32.7462	
284	2.36667	-58.8929	22.5578	28.9076	-60.7181	7.21886	-0.818	-56.9342	5.18279	-28.6038	-63.0588	20.7156	-51.4815	-29.6745	53.9735	-29.354	-37.1448	40.3929	-61.8816	-57.4535	18.8151	-67.7634	-40.9342	73.8976	-35.4981	-37.8377	74.3318	-61.461	-36.138	72.9563	-91.6671	-60.4979	86.2992	-35.4194	-59.3565	93.6309	-57.751	-54.4805	99.3045	-82.7501	-85.1784	91.8838	-30.318	-91.2424	98.1937	-44.5524	-94.8363	118.584	-62.8417	-69.286	81.1169	14.4584	-82.7864	79.0066	45.8207	-48.811	58.3973	33.7756	
285	2.375	-57.9005	23.93	28.0147	-58.7368	6.43386	-1.49685	-58.561	7.40635	-27.597	-61.2334	16.2677	-52.8474	-29.5249	54.5505	-33.7283	-33.2176	38.2709	-60.9513	-55.9558	21.1776	-68.1687	-41.0205	76.3307	-38.7304	-36.7325	74.2942	-65.2794	-35.8556	73.7143	-92.5408	-61.4156	87.8252	-32.2922	-57.1262	93.7308	-57.8394	-56.308	102.699	-83.4805	-84.774	92.8991	-28.5137	-92.7476	102.149	-45.8844	-93.4298	117.32	-59.6747	-69.1192	83.7296	17.6029	-79.9887	79.1134	41.6712	-50.6635	60.1984	35.8223	
286	2.38333	-57.2293	26.0925	26.1948	-61.0728	8.71743	0.565418	-57.471	8.02101	-29.9146	-62.5481	21.5154	-51.5236	-27.4951	55.1059	-33.9449	-32.8772	42.7282	-59.6564	-56.3237	26.615	-67.6727	-41.1215	77.3088	-34.0728	-37.9544	77.2451	-61.4996	-37.5427	76.3297	-93.7607	-56.0193	89.576	-35.2196	-57.8088	97.8522	-58.8073	-54.6039	104.582	-84.8941	-87.0988	95.9297	-26.2587	-89.3601	102.096	-43.8252	-90.7427	120.646	-59.6812	-69.3503	85.1806	14.3875	-76.0939	78.2099	44.1342	-49.3338	59.9734	36.1218	
287	2.39167	-56.5099	25.1649	29.1648	-59.7864	13.0683	-2.68087	-56.403	7.62418	-30.8845	-62.5034	21.6213	-54.1829	-25.7872	56.0974	-33.5384	-32.5745	47.188	-59.6135	-57.9017	23.7569	-66.5619	-39.4827	78.6613	-33.8318	-34.4453	78.3235	-65.5955	-35.8894	76.9596	-92.5316	-58.1157	90.6452	-33.2813	-55.377	97.7116	-55.6707	-51.6994	105.646	-82.3045	-85.8626	96.7223	-25.0772	-88.941	104.212	-44.8315	-88.6751	119.226	-59.2252	-67.7987	88.4434	15.4343	-78.1173	81.0409	47.377	-47.9844	61.4896	35.4902	
